<?xml version="1.0" encoding="utf-8"?>
<!-- Generator: Adobe Illustrator 16.2.1, SVG Export Plug-In . SVG Version: 6.00 Build 0)  -->
<!DOCTYPE svg PUBLIC "-//W3C//DTD SVG 1.1//EN" "http://www.w3.org/Graphics/SVG/1.1/DTD/svg11.dtd">
<svg version="1.1" id="Layer_1" xmlns="http://www.w3.org/2000/svg" xmlns:xlink="http://www.w3.org/1999/xlink" x="0px" y="0px"
	 width="60px" height="70px" viewBox="0 0 60 70" enable-background="new 0 0 60 70" xml:space="preserve">
<g>
	<g>
		<path fill="#EE5B4A" d="M59.87,16.132c-0.19-0.364-0.565-0.593-0.979-0.593h-0.014c-15.474,0.171-24.369,5.566-26.826,7.293
			c-2.902-2.003-16.344-9.224-29.73-10.068l0.547,2.5c14.488,0.919,28.411,9.735,28.54,9.827c0.407,0.303,0.977,0.29,1.366-0.035
			c0.084-0.068,8.129-6.52,23.945-7.238l-3.671,5.242c-1.538-0.281-3.37,0.627-4.5,2.395c-1.022,1.614-1.163,3.463-0.499,4.746
			l-4.722,6.748c-7.668-0.373-14.021,1.969-17.87,3.722l5.62-13.787l-2.033-0.907l-6.149,15.08
			c-4.054-3.001-12.596-5.566-15.006-6.25l-1.532-5.974c1.448-1.009,2.181-3.219,1.646-5.546c-0.562-2.458-2.333-4.204-4.19-4.339
			l-0.945-3.685l-2.342-0.196l1.164,4.537c-1.367,1.051-2.031,3.205-1.517,5.459c0.549,2.38,2.229,4.088,4.027,4.31l1.691,6.606
			c0.098,0.382,0.399,0.688,0.789,0.794c1.308,0.351,3.469,0.997,5.806,1.815c-2.99,7.495-7.129,17.877-7.129,17.877
			c-1.208,3.018-0.362,8.024,2.666,9.227l1.294,0.513c3.025,1.199,3.644,1.505,5.479,2.169c0,0,2.169-5.438,4.626-11.606
			c3.621,0.141,7.397,0.362,10.192-0.272c2.049,5.021,3.799,9.277,3.799,9.277c1.231,3.005,6.09,5.411,11.281,3.605l3.811-1.555
			c0,0-6.963-16.988-10.232-24.955c-0.506-1.243-0.972-2.385-1.388-3.392c2.137-0.312,4.453-0.448,6.92-0.281
			c0.388,0.026,0.767-0.149,0.99-0.472l4.97-7.105c1.594,0.449,3.586-0.475,4.774-2.349c1.101-1.715,1.175-3.696,0.35-4.979
			l4.91-7.008C60.038,16.944,60.066,16.499,59.87,16.132z M21.592,51.341c1.071-2.68,2.086-5.242,2.913-7.309
			c0.819,1.997,1.896,4.623,3.018,7.361C25.768,51.6,23.662,51.451,21.592,51.341z M29.283,17.19l1.254,0.371
			c1.485,0.448,3.016,0.231,4.272-0.47c0.688-0.38,0.305-0.83,0.039-0.966c-2.775-1.604-2.371-3.769-2.371-3.769
			s0.566,0.73,3.647,0.865c0.969,0.039,1.654-0.613,1.893-1.345c0.798-2.631,1.332-4.408,1.332-4.408
			c0.343-1.129,0.298-2.289-0.053-3.329c-0.285-0.858-0.788-1.644-1.46-2.272c-0.458-0.433-1.001-0.792-1.612-1.053
			c-0.188-0.079-0.379-0.144-0.576-0.205l-1.249-0.375c-2.927-0.873-6.011,0.782-6.893,3.7c0,0-0.043,0.144-0.123,0.41
			c-1.002,3.332-1.801,5.989-1.801,5.989C24.707,13.244,26.36,16.315,29.283,17.19z"/>
	</g>
</g>
</svg>
